M48
;Layer_Color=9474304
;FILE_FORMAT=4:4
METRIC,LZ
;TYPE=PLATED
T1F00S00C0.2000
T2F00S00C0.3000
T3F00S00C0.4000
T5F00S00C0.9000
T6F00S00C1.0000
T7F00S00C1.0500
T8F00S00C1.1000
T9F00S00C1.6000
T10F00S00C1.8000
T11F00S00C1.9000
T12F00S00C3.0000
;TYPE=NON_PLATED
T13F00S00C0.8000
T14F00S00C1.0000
T15F00S00C1.5000
T17F00S00C1.5500
T18F00S00C3.1000
%
T01
X0200075Y00247
X0200875Y00247
X0199775Y0025675
Y002635
X0199775Y0027025
X0199775Y00277
X02017Y0028025
Y0027175
Y0026325
X02029
Y0027175
Y0028025
X02042705Y00249011
X02050205
X02057705
X02057705Y00241511
X02050205
X02042705
X0206875Y002285
X020695Y001965
X0209125Y0021325
X0212875Y0020775
X02128Y0026925
Y0027425
Y0027925
X02123
Y0027425
Y0026925
X02133
Y0027425
Y0027925
X02073Y00274
X02073Y002845
X0206375Y0026825
X0228Y00225533
X02285Y001875
X02265Y001675
X02305
X02285Y001475
X0219875Y001405
X019175Y00133
X0186625Y0017525
X018645Y001985
X018645Y002065
X0185475Y001955
X01848
X0184125
X018345
X0183125Y0021475
X0183975
X0184825
Y0022675
X0183975
X0183125
X0178775Y0022575
X0178775Y002365
X0181675Y0027075
X0182125Y00276145
X01827Y0027075
X018375Y0027075
X0184325Y002615
X01862489Y00255455
X01869989Y00255455
Y00247955
Y00240455
X01862489
Y00247955
X0163275Y0020775
Y0020275
Y0019775
X0162775
X0162275
Y0020275
X0162775
Y0020775
X0162275
X0162975Y0013275
X016535Y0013275
X0156625Y00183
X0155525
X0154425
X0153325
X015225Y00183
X01462Y0017975
X01462Y0017175
X0145225Y0016875
X014455
X0143875
X01432
X0142875Y00188
X0143725
X0144575
Y002
X0143725
X0142875
X0138525Y00199
X0138525Y002105
X0141425Y00244
X0141875Y00249395
X014245Y00244
X01435Y00244
X01459989Y00228705
Y00221205
Y00213705
X01467489
Y00221205
Y00228705
X0146075Y00282
X014915Y0028675
X015045Y002815
X015095
X015245
X015295
X0151875Y0027075
X014245Y002845
X01381Y0027475
X0129425Y0021675
Y0021175
X0128925
Y0021675
X0127275Y0023175
X012475Y002545
X012355Y0026425
X0122225Y00263
X01213Y00259
X01217245Y0025245
X012065Y002335
X012015
Y002285
X012065
X0124075Y0028625
X013165Y0013375
X0118275Y002075
X011655Y00238
X0115975
X01154262
X01151275Y0023325
X01145787
X01144713Y00249
X01139225
X01133738
X0112825
X01122762Y00249
X0111725Y00249
X011095Y002335
Y002285
X011045
Y002335
X01056Y0023075
X0102125Y0023
X0101625
X01003Y002435
X009995Y002825
X0099075
X0094825Y0028325
X009015Y00282
X008725Y0028325
X0086225
X0086875Y002435
X009Y00244
X009595Y002435
X010515Y00283
X01063543Y0028125
Y0028625
X011065
X011115
X01150201Y00249
X01155688
X011625Y0024325
X011535Y00181
X008275Y00133
X0081475Y0025325
X00805Y0027325
X008Y002775
X0078625Y002735
X007865Y0026025
X007735Y0024375
X0076325Y00268
X0072875Y00257
X0071325Y002735
X00679Y00273
X006875Y002435
X0063575Y0025775
X0062075Y0027325
X0059725Y00261
X00546Y0025725
X0053775Y0027075
X00517Y0027375
X0055425Y002435
X005565Y001215
X0056225
X00569Y001065
X00574
X005875Y000925
Y000875
X0062025Y000875
Y000925
X00619Y00115
X00614
X00609
X00604
X006Y0014
X00595
X0059
X00585
X00624Y0014
X00629
X00634
X00639
X0064775Y0012875
X0065125Y00125
X00654Y00115
X00659
X00664
X00669
X0067125Y00092625
Y00087625
X0069275Y000875
Y000925
X0071025
Y000875
X0073275
Y000925
X0075025Y000925
Y000875
X00749Y00115
X00744
X00739
X00734
X00709
X00704
X00699
X00694
X00689Y0014
X00684
X00679
X00674
X00714
X00719
X00724
X00729
X00754
X00759
X00764
X00769
X0078425Y001285
X0078625Y0009275
Y0008775
X0064625Y0008775
Y0009275
X00526625Y00118625
X0051525Y0011875
X0049475Y0013275
X0048975
X0048475
X0047975
Y00138
X0048475
X0048975
X0049475
X004865Y001095
Y00097836
X0046625Y0009975
Y0010475
Y0009475
Y0008975
Y0008475
X004865Y00068875
Y00063875
X004495Y002125
X0043Y0023225
X0041125Y002675
X0040625Y0026375
X0039207Y0025491
Y0024691
X0039207Y0023891
X0039207Y0020691
X0039207Y0019891
X0035591Y0019091
X0035591Y0021491
X0035591Y0022291
X0035025
X0035025Y0023091
X0035591
X0035591Y0026291
X0031007Y0025891
Y0024291
X0031007Y0022691
X0031007Y0021091
Y0019491
X0027391Y0018691
X0027391Y0020291
Y0021891
X0027391Y0023491
X0027391Y0025091
X0024775Y0028025
X002425
X0023725
X00232
X002215Y001435
X001688
X00312
X0026875Y0036325
X0023675Y0036475
Y0036
Y0035525
X00214Y00401
X0015475Y0039625
X001285Y00385
X0013025Y003635
X0011025Y003435
X0015025
X0013025Y003235
X0010875Y0043175
X001405Y0047975
X001475Y004825
X0014775Y00492725
X001385Y0051775
X001335Y0051775
X00128
X001225
X001175Y0052125
X0013625Y0053057
Y0054467
Y0055172
X0012975Y0054625
X0013475Y0059275
X00190792Y00590515
Y00586015
X00189542Y00577765
X001895Y0057275
X00206292Y00586015
Y00590515
X002235Y0059625
X00222792Y00618265
Y00625015
Y00631765
Y00638515
X00244292
Y00631765
Y00625015
Y00618265
X00236042Y00665515
X00231042
X002355Y00673
X00242218Y00675782
X00245Y006825
X0027875Y0067325
X002785Y006415
X00308404Y0064245
X00308404Y006472
X00314Y0060025
X003195Y0060275
X00325Y0060025
X003355Y0058375
Y0057275
Y0056175
Y0055075
X0033725Y0054125
Y0053625
Y0052925
Y0052425
X00332Y0050625
X00325Y00512
X003195Y00512
X00314Y00512
X00314Y0054425
X003195Y0054425
X00325Y0054425
X003195Y00556
X00325Y00567
X00314
X0027425Y0057075
X00265Y00571
X00267943Y00542283
X0027466Y00545065
X0026516Y00535565
X00267943Y00528848
X00281378Y00528848
X0028391Y00506065
X002655Y0050675
X00260285Y00499065
Y00494066
Y00489066
X0027466Y00494066
X0028366Y00482815
X00309964Y0048345
X00309964Y004787
X00331564
X00331564Y0048345
X0033325Y00449
X0033875Y0044975
X0034375Y0044725
X0035
X00355Y0044975
X0036075Y0044975
X0036575Y0044725
X00372
X00377Y0044975
X00383Y0044975
X00388Y0044725
X0039425
Y0042025
X00388
X00383Y0042275
X00377Y0042275
X00372Y0042025
X0036575
X0036075Y0042275
X00355Y0042275
X0035Y0042025
X0034375
X0033875Y0042275
X0033475Y0043025
X003315Y0040675
X0032675
X00322
X0031Y0042775
X00303Y004365
X002995Y00433
X00364Y00457
X0037925Y0045975
X0036Y00504
X0035832Y00528405
X0036375Y00527
X00375593Y00525155
X0037903Y00530873
X0037916Y00546315
X0038317Y00542346
X0036816Y00555565
X0036781Y00566165
X0037372Y00568243
X0037968Y00571756
X0039016Y00565816
X0039501Y00573376
X0036991Y00582565
X0036678Y00594374
X0037366Y00604815
X00377395Y0060855
X0038328Y00614123
X0038872Y00613345
X00363704Y0061981
Y00625821
X0034425Y00626
X00345Y0066475
X00363704Y0066381
Y00669821
X0034875Y0058975
X0029525Y0059775
Y0060275
X0029025
Y0059775
X00234468Y00536968
X0023725Y0053025
X00234468Y00523532
X00221033Y00523532
X0021825Y0053025
X0021016Y00543065
X0020016
X0020516Y00513315
X0024416Y00483315
X0022991Y00465815
Y00458815
X0023666Y00458815
X0022091
X00059Y004805
X00033Y005285
X000665Y00552
X0009575Y0067725
X001345Y006675
X001885Y0065275
X0018725Y006155
X0041499Y00606676
X0041166Y00603346
X0041166Y00596686
X0040833Y00600016
Y00593356
X0041166Y00590026
Y00583366
X0040833Y00586696
X00405Y00583366
X0040167Y00586696
X0039834Y00583366
X0040167Y00580036
X0040833
X00405Y00576706
Y00570046
X0040833Y00566716
X0041166Y00563386
X00405
X0039834Y00556726
Y00543405
X00405
X0040833Y00546735
X0041166Y00550065
Y00543405
X0040833Y00540075
X0041166Y00536745
X0041166Y00530085
X0040833Y00526755
X00405Y00536745
X0040167Y00533415
X0039834Y00530085
X0039678Y00509373
X0042165Y00520095
X0043164Y00516765
X0043497Y00513435
X0044829Y00506775
X0045162Y00510105
X0045495Y00513435
X0045828Y00516765
X0045495Y00520095
X0045828Y00510105
X0046161Y00513435
X0046494Y00516765
X0046494Y00510105
X0046827Y00513435
Y00506775
X004716Y00510105
X0047493Y00506775
X0047826Y00510105
Y00503445
X0047493Y00520095
X0047031Y00533335
X0046031
Y00543335
X0047031
Y00553335
X0046031
Y00563335
Y00573335
X0047031
Y00563335
Y00583335
X0046031
X0045031Y00583435
Y00573435
Y00563435
Y00553435
Y00543435
Y00533435
X0044031Y00533335
X0043031
Y00543335
X0044031
Y00553335
X0043031
Y00563335
Y00573335
X0044031
Y00563335
Y00583335
X0043031
X0041832Y00596686
X0040167Y00593356
X0044496Y00603346
X0044829Y00600016
X0045162Y00596686
X0045495Y00600016
X0045828Y00596686
X0046161Y00600016
Y00606676
X0047493
X0048159
X0048492Y00603346
X0048159Y00600016
X0048492Y00596686
X0049158
X0048825Y00606676
X0047826Y00603346
X004716
Y00596686
X0047493Y00600016
X0046647Y00618819
X0045241Y00623065
X00454006Y00628161
X00457506Y00632161
X0046947Y00637183
X0047353Y00640123
X0048166Y00633881
X0048151Y00628382
X00496Y00639
X005015Y0064525
Y0064975
X00517Y0064975
Y0064525
X0052053Y00624935
X0053028Y00631373
X0053653
X0054278Y00631373
X0056375Y0062375
X0057686Y00643215
X0058956
X0060225Y0065575
X006255Y0064375
X0062875Y006375
X00624305Y00679061
X00618293
X00655094Y00679061
X00661105
X00674594
X00680605
X00711395
X00717406
X00731835Y00679301
X00737846
X00766154
X00772165
X00788095
X0078549Y00635396
X007855Y0063025
X0077901Y00628382
X0077916Y00633881
X0077909Y00606676
X0078242Y00603346
X0077909Y00600016
X0078242Y00596686
X00789081
Y00590026
X00789081Y00583366
X00792411Y00580036
Y00586696
Y00573376
X00789081Y00576706
X00785751Y00580036
X0078531Y00573185
X00789081Y00570046
X00792411Y00566716
X0078575Y00566716
X00785751Y00560056
X00792411Y00560056
Y00553396
X00789081Y00543405
X00792411Y00540075
Y00533415
X00789081Y00536745
X00785751Y00540075
X0078575Y00546735
Y00533415
X00789081Y00530085
X00792411Y00526755
X00789081Y00523425
X0077243Y00520095
X0077576Y00510105
X007691
X0076244
X0076577Y00513435
Y00506775
X0077243
X0077576Y00503445
X0075578Y00510105
Y00516765
X0075245Y00520095
X0075245Y00513435
X0074912Y00510105
X0074579Y00506775
X0075911Y00513435
X0076244Y00516765
X0075781Y00533335
X0076781
Y00543335
X0075781
Y00553335
X0076781
Y00563335
X0075781
Y00573335
X0076781
Y00583335
X0075781
X0074781Y00583435
Y00573435
Y00563435
Y00553435
Y00543435
Y00533435
X0073781Y00533335
X0072781
Y00543335
X0073781
Y00553335
X0072781
Y00563335
Y00573335
X0073781
Y00563335
Y00583335
X0072781
X0070916Y00583366
X0070583Y00586696
X0070916Y00590026
X0070583Y00593356
Y00600016
X0070916Y00596686
X0070916Y00603346
X0071249Y00606676
X0071582Y00596686
X0069917Y00593356
Y00586696
X007025Y00583366
X0069584
X0069917Y00580036
X0070583
X007025Y00576706
Y00570046
X0069251Y00573376
X0067718Y00571756
X0067122Y00568243
X0068353Y00564373
X0068397Y00554095
X0068067Y00542346
X0067653Y00530873
X0069584Y00530085
X0069917Y00533415
X007025Y00536745
X0070916Y00536745
X0070916Y00530085
X0070583Y00526755
X0069428Y00509373
X0072424Y00499706
X0072914Y00516765
X007495Y0048525
X0071275Y004415
X0070225Y004465
X0065625Y00438
X0066Y0043425
X0063975Y0042225
X00618126Y00438851
X00614767Y0044221
X006095Y0045075
X00598314Y004615
Y0046975
X00564686
Y0045675
X00549Y00459
X00526468Y00457217
X0052925Y00453
X0052875Y004475
X0051075Y004485
X0051275Y00455
X0049625
X0049075
X004855
X00501854Y004405
Y004355
Y004305
X0051025Y004255
X0052625Y0042275
X00534768Y00413257
X00516Y0041175
X004945Y0037125
X0048925
X0054125Y003625
X0054075Y0035175
X0055025Y0034225
X00562089Y0035279
X00567089
X00572089
X00567089Y00370686
X00572Y003825
X00584Y003805
X006094Y00380094
X006144
X006194
X0062675Y0037575
X0062465Y00352001
X006044
X006144Y00362198
X0068625Y0036
X0069125
Y00365
X0068625
X007085Y0038225
X00769875Y00379342
X00774875
X00779875
X0079025Y00385
X007883Y00355444
X007915Y00342
X00774875Y00361446
X0076145Y00355444
X007895Y0030175
Y0029675
X0078575Y00606676
X0077243
X007691Y00603346
Y00596686
X0077243Y00600016
X0077576Y00603346
X0075911Y00606676
Y00600016
X0075578Y00596686
X0075245Y00600016
X0074912Y00596686
X0074579Y00600016
X0074246Y00603346
Y00610006
X0074579Y00613336
X00748305Y00619165
X007505Y006245
X0073517Y00622373
X0076397Y00618819
X0068622Y00613345
X0068078Y00614123
X00674895Y0060855
X0067116Y00604815
X0066428Y00594374
X0066741Y00582565
X0065703Y00545671
Y00541219
X0064825Y00535
X006435
Y0053025
X0064825
X0061861Y00550171
Y00563171
X00584983
X00584983Y00550171
X0059075Y0051275
X0059575
Y0050775
X0059075
X0053841Y00511065
X00534Y00503
X0052756Y00497448
X0051Y0049875
X00509491Y00491241
X0051Y00477
X00536891Y00473641
X0054025Y00477
X00537Y0052975
X00498241Y00530085
X0048825Y00533415
X0049158Y00523425
X0048825Y00546735
X0049491Y00553396
X00498241Y00556726
X0049491Y00560056
X0048825Y00560056
X0048825Y00566716
X0049491Y00566716
X00501571Y00560056
X00504901Y00556726
X00501571Y00553396
X0051481Y00559185
X0051466Y00564815
X0052016Y00561315
X0052641Y00560306
X0052753Y00589123
X0052278
X0050681Y00590685
X00498241Y00590026
X00501571Y00580036
X0048825Y00580036
X0048781Y00573185
X0054316Y00573565
X0056566Y00574315
Y00579066
X00589407Y00590625
X00594407
Y00595625
X00589407
X00546551Y00600957
X00547Y0060575
X0044829Y00613336
X0044496Y00610006
X00437194Y00618384
X00418416Y00668611
X00412405
X00456405Y00668611
X00462416
X0047741Y00666841
X0050441Y00504315
X0045325Y0049025
X004295Y004895
X00415Y0044575
X0039925Y0044975
Y0042275
X0041525Y0041975
X00436438Y00426688
X00451437Y00429188
Y00439188
X00462Y004435
X00467304Y00427696
X0057175Y00442436
X0058889Y00429296
X0059389
Y00424296
X0058889
X0080125Y00431
X008075
X008135
X008355
X008495Y00431
X008455Y0039475
X0085825Y00365466
X00862Y0036125
X0085825Y0035701
X0081025
X00814Y0036125
X0081025Y00365466
X007945Y0030175
X007945Y0029675
X00843Y003135
X009315Y0031325
X009285Y0031725
Y0030925
X00983
X0098Y0031325
X00983Y0031725
X009865Y0035425
X00998343Y0037011
X01002408Y00366044
X0102475Y0036675
X01047892Y0037063
X01046641Y0037575
X01047892Y0038063
X0106275Y0037575
X0107325Y00386
X0109225
X0109175Y0040925
X0108025Y00413
X01077467Y00406282
X0107075Y004035
X0106125Y00413
X01064033Y00419717
X01077467Y00419717
X01114Y0041025
X0111975
X011165Y0038487
X011145Y003565
X01126Y00356495
X011215Y0033987
X01145Y0031537
X0115
Y0031037
X01145
X011115Y0029125
X011065
X0108175Y003055
X010635Y002915
X01058543Y00289
X0105125Y0036425
X0107425
X0114275Y0036725
X0118775Y0035375
Y0034875
X01177687Y0044025
X01172687
Y0044525
X01177687
X0117575Y00464483
X01180812
Y00472983
X0117575Y00473
X01184254Y00491716
X01178812Y00504483
X011522Y0050401
X0114887Y0050734
X0114221
X0113888Y0051067
X0114221Y00514
X0114554Y0051067
X011522
X0114887Y0052066
X0113888Y0051733
X0113222
X0113555Y00514
X0112889
Y0052066
X0112556Y0051067
X0112223Y0050734
X0113222Y0051067
X01128Y0049075
X0110891Y00514
X0110558Y0051733
X0109559Y0052066
X0108227Y0052732
X010856Y0053065
X010856Y0053731
X0108227Y0054064
Y005473
X0107894Y0054397
X0107228
X010856
Y0055063
X0107894Y0053731
X0107561Y0053398
X0107228Y0053065
X0105975Y0052875
X01055923Y00532827
X01045573Y00543263
X0104875Y0054925
X01048123Y0056841
X01054083Y00571923
X0105725Y00566
X01060873Y00560935
X0106895Y0057394
X0107894Y0057727
Y0058393
X0107561Y0058726
X0107228Y0058393
X0107561Y005806
X0108227
X010856Y0058393
X0108227Y0058726
X010856Y0059059
X0108227Y0059392
Y0060058
X010856Y00597251
X010856Y0060391
X0108893Y00607241
X0109226Y00597251
X0107561Y00593921
X0107894Y0057061
X0110425Y005739
Y005639
X0111425
Y005739
Y005839
X0110425
X0112425Y00584
Y00574
Y00564
Y00554
Y00544
Y00534
X0113425Y005339
X0114425
Y005439
X0113425
Y005539
X0114425
Y005639
X0113425
Y005739
X0114425
Y005839
X0113425
X0113222Y00597251
X0112889Y00600581
X0112556Y00597251
X0112223Y00600581
X011189Y00603911
Y00610571
X0112223Y00613901
X01125312Y00625483
X01130312Y00627733
X01140872Y00618986
X0113555Y00607241
Y00600581
X0114554Y00597251
X0114887Y00600581
X011522Y00603911
X0115886
X0115553Y00600581
X0115886Y00597251
X0116552
X0116219Y00607241
X0115553
X0114887
X0114554Y00603911
X01155912Y00628549
X01156062Y00634049
X01147932Y00640291
X01143873Y0063735
X011659Y00646507
X01171557
X01181248Y00605236
X0118075Y0059125
X0117218Y00590591
X01175511Y00580601
X01162123Y00580763
X01161962Y00573602
X0116219Y00567281
X0116885Y00567281
Y0056062
X0116219Y0056062
X0117218Y0055729
X01178841
X01175511Y0056062
X0117551Y0055396
X0116885
X0116219Y005473
Y0053398
X0117218Y0053065
X0116552Y0052399
X011885Y0052725
X0118875Y0055975
X0111425Y005539
X0110425
Y005439
X0111425
Y005339
X0110425
X01065932Y00513541
X01075538Y00489398
X01037288Y00530648
X01033288Y00534647
X01034Y0055775
Y00563
X01044312Y00582733
X0104787Y00588291
X01041182Y00594541
X01048062Y00604983
X01051797Y00608717
X01059868Y00616932
X01063873Y00613513
X01038135Y00614739
X01032478
X01032673Y00664126
X0103833
X010185Y00661
X0100275
X00990079Y00643488
X00990363Y00636091
X009815Y0061275
X0095525Y0064
X00951556Y00588847
X00954339Y0058213
X00951556Y00575412
X00938121Y00575412
X00935339Y0058213
X00938121Y00588847
X0090875Y00592
X008755Y00585956
X008755Y00579706
X0085275Y00562456
X0084725Y00562455
X0083625Y00562456
X0083Y00562456
X008255Y00566205
X0082028Y00568046
X0081481Y00568854
X0080956Y00563435
X0081231Y00559185
X00802401Y00556726
X00799071Y00560056
X00795741Y00556726
X00795741Y00550066
X00799071Y00553396
X00795741Y00543406
X00795741Y00530085
X00804845Y00527569
X00808845Y00530569
X00812345Y00534319
X00816095Y00537819
X0081516Y00521065
X0080191Y00504315
X0080125Y0049025
X00807352Y00491549
X00817Y00473
X008265Y0047825
X00834685Y00493706
X0083591Y00511065
X0084066Y00511065
X0084625Y0048625
X0087525Y0050775
X00907179Y00499588
X00913896Y0050237
X00904396Y0049287
X00907179Y00486152
X00913896Y0048337
X00920614Y00486152
X00926396Y0048037
X00921538Y0047525
Y0046525
X0092825Y00461
X00936396Y0047037
X00942396Y0048512
X00954Y0048475
X009515Y0046325
X00986788Y00463
X01006788Y0046317
X00986Y00421928
X00986Y00415
X00992Y0041325
X009815Y004185
X00964Y00418534
X0096225Y0039525
X00935812Y0041475
X00935812Y00422178
X00931562Y0041825
X008975Y004705
X0098975Y00511
X0098875Y00522
X0098375Y00526
X0100225Y005345
X011115Y0062175
X011185Y0068411
X0106333Y00681327
X0105933Y00685328
X008845Y00644456
X00877
X0088002Y00626456
X00858Y0064925
X0083925Y00642956
X0083403Y00643035
Y00631373
X008225Y00634206
X008265Y00638456
X00819468Y00642132
X0081803Y00624935
X00819345Y00605319
X00814345Y00605069
X00809345
X0080431Y00590685
X00795741Y00590026
X00795741Y00583366
X00799071Y00580036
X00795741Y00570046
X0083041Y00570816
X0082503Y00589123
X0082028
X00831Y00603705
X008425Y00663706
X00828425Y00679301
X00822414
X00794106
X01214Y006565
X0122103Y006575
Y0065275
X0122725Y0064275
Y00638
X012195Y0063075
X01210932Y00631541
X01204682
X01194932Y00625103
X0121875Y00611852
X01237562Y0061275
Y0060725
X01237562Y00589291
X01243312
X01253Y006
X01254Y00631
X0124675Y00631
X0129475Y0062675
X012995Y0063275
X013045
Y0063775
X012995
X01308Y0060925
X0130325Y006045
X0131825Y00603
Y005975
X013245Y006215
X01331954Y00626576
X01343454Y00626576
X0134175Y0061975
X0136025Y006165
X0136525Y0061875
X0137125
X0138375Y00634906
X0138375Y00640156
X0138825Y00637406
X01399Y00644
X014245Y00643
X01423997Y00636497
X014305Y00637
X0143625Y0064375
X01444Y006285
X01464Y00619
X0146425Y006085
X014695
X014645Y00602657
X014795Y00602888
X014845Y006085
X014895
X015045
X015095
X015245
X015295
X0153Y005855
Y005745
Y005635
Y005525
Y005415
Y005305
Y005195
X01519
X01508
Y005305
X01519
Y005415
Y005525
X01519Y005635
X01508
Y005745
X01519Y005745
Y005855
X01508
X01497
X01486
Y005745
X01497
Y005635
Y005525
X01508
X01508Y005415
X01497
X01486
Y005525
Y005635
X01475
Y005745
Y005855
X01464
Y005745
Y005635
X01464Y005525
X01464Y005415
X01475
Y005525
Y005305
X01486
X01497
Y005195
X01486Y005195
X01475
X01464
Y005305
X01441Y0053
Y00525
X0142525Y00531
X01407516Y00542016
X01407516Y00547016
X01407516Y00552016
X0140324Y0057049
X014175Y0057875
X01441Y0058
Y00575
X014405Y0060225
X01431Y00612
X0146525Y00639
X014695Y00644
X014745Y0063775
X0148175Y0062325
X014945Y00626
X014995
X015145
X015195
X0149975Y006485
X0149425
X015045Y006765
X015095
X0151675Y006745
X015245Y006765
X015295
X0157289Y00679426
X015725Y00685
X01563Y00649
X01566Y0059275
X01547Y00588
X015705Y00555
Y0055
X01553Y00525
Y0052
Y0051325
X0154125Y0050875
X0154925Y0049225
X015295Y00479
X015245
X015095
X015045
X0149075Y0048075
X014945Y004965
X014995
X015145Y0050125
X015195
X0152275Y0044225
X015195Y004285
X015145
X014995
X014945
X014895Y00411
X014845
X014795Y00414559
X014745Y00411
X014695
X014645Y00414603
X0146225Y00434
X014305Y004395
X01423997Y00438997
X014245Y004455
X014265Y004585
X01419Y0047112
X014245Y00482
X01423997Y00488503
X014305Y00488
X01465Y004785
X0150225Y00444
X015045Y00411
X015095
X015245
X015295
X0153Y00388
X01519
X01508
X01497
X01486
X01475
X01464
Y00377
Y00366
X01475
Y00355
Y00344
X01464
Y00333
Y00322
X01475
Y00333
X01486
X01497
Y00344
X01486
Y00355
X01497
Y00366
X01486Y00366
Y00377
X01497
X01508Y00377
Y00366
X01519
X01519Y00355
Y00344
X01508
Y00333
Y00322
X01519
X01519Y00333
X0153
Y00322
Y00344
Y00355
Y00366
Y00377
X01519
X01508Y00355
X01464
X01475Y00377
X01441Y003775
Y003825
X0140224Y00382285
X01408735Y003735
X01407516Y00354516
X01407516Y00349516
X01407516Y00344516
X0142875Y0033375
X014315Y003275
X01441Y003275
Y003325
X014305Y002905
X01423997Y00291003
X014945Y00299
X014995
X015145Y0030225
X015195
X01558Y0030525
X01553Y003225
Y003275
X015705Y003325
Y003375
Y003525
Y003575
X0157525Y003265
X015735Y00294
X01497Y00322
X01486Y00322
X0136025Y00325
X01355
X0135675Y00336
X013585Y003565
Y00365
Y003735
X0135
X013415
Y00365
Y003565
X0135Y003565
Y00365
Y0039125
Y0039625
X01351Y00412949
X0134675Y0041625
X01342428Y00412949
X0131975Y0040175
X0131475
X0130325Y00407
X01308Y0041175
X012785Y004125
X0127325
X0126825
X01263
X0127975Y00426
X0129275Y004565
X012975
X0130225Y00461436
X0131525
X01342Y0046175
X0134625Y00466
Y00472
X01344954Y00488
X0135125Y0051075
X0133Y00508214
X01308Y0051575
X013025Y00515
X0130325Y005205
X0130225Y00495064
X0129375Y0049375
X01287936Y00488
Y00543903
X01285436Y00548403
X01290686Y00548403
X0130475Y005625
X0131875Y005625
X0132375
X013415
X0135
Y00554
X013415Y00554
Y00571
X0135
X013585
Y005625
Y00554
X0135675Y005335
X013815Y0052675
X013865Y005305
X013775Y0057
X0135Y0058875
Y0059375
X01332Y006465
X0129725Y0057125
X01200932Y00561213
X0119Y0056925
X01197182Y00589291
X01201932
X0121425Y0052925
X01212812Y00511233
X01217562Y00511233
X0120375Y00491541
X01197182Y0049075
X012325Y0049
X0123675Y0044225
X0123625Y00408064
X0122325
X01208936Y00401
X01195796Y0038386
X01190796
Y0037886
X01195796
X0119275Y0035375
Y0034875
X01195455Y0032061
Y0031561
Y0031061
Y0030561
X01222909Y00305686
X01235909
Y00339314
X01222909
X01208595Y0033225
X0122325Y00374436
X0123625
X01265Y0036725
X012645Y00344
X012955Y00357
Y00362
X01297Y003695
X0131875Y00365
X0132375
X013775Y003725
X0137025Y004395
X0134575Y003035
Y002985
X0134075
Y003035
X0133575
Y002985
Y002935
X0134075
X0134575
X01308Y0031825
X0130325Y00323
X01266Y0029875
X0119575Y0044225
X0155625Y0041925
X0156275Y004185
X0157575Y0046025
X014245Y006795
X014305Y006855
X0162725Y0067696
X016305Y006495
Y006385
X016195
X016195Y006495
X016175Y0061104
X016275Y0061104
X016375Y0061104
X016075Y0061229
X0160125Y00612
X01601Y0061754
X0159425Y00612
X01606Y0057976
X016115Y0057976
X01617Y0057976
X016225
X01628
X016335Y0057976
X01639
X016445Y0057976
X016555Y005505
X01696679Y0055275
X0169175Y0054275
X0170875Y0053775
Y0052775
Y0051775
Y0050775
Y0049775
X0169875
X0169575Y0048575
X0169975Y00451
X0167025Y0044225
X01605Y0042475
X0158925Y004325
X0158875Y0040225
X0161675Y00402
X01745511Y00416045
Y00421045
Y00426045
X01750511
Y00421045
Y00416045
X01755511
Y00421045
Y00426045
X01778Y00437
X017735Y0045675
X0176875Y0049775
Y0050775
Y0051775
X0175875Y0051775
X0174875
Y0052775
Y0053775
X0175875Y0053775
X0175875Y0052775
X0176875
X0177875Y0052775
X0177875Y0053775
X0178875Y0053775
Y0052775
Y0051775
X0177875Y0051775
Y0050775
Y0049775
X0178875Y0049775
X0179875Y0050775
X0179875Y0051775
X0180875Y0051775
Y0052775
Y0053775
Y0054775
X0179875Y0054775
X0178875Y0054775
X0177875Y0054775
X0176875Y0054775
X0175875
Y0055775
X0176875Y0055775
Y0056775
Y0057775
X0175875Y0057775
X0175875Y0056775
X0174875Y0057775
Y0058775
X0175875Y0058775
Y0059775
X0176875Y0059775
Y0058775
X0177875Y0058775
X0178875Y0058775
X0178875Y0059775
X0179875Y0059775
Y0058775
Y0057775
Y0056775
X0178875
Y0057775
X0177875Y0057775
Y0056775
Y0055775
X0178875Y0055775
X0179875Y0055775
X0180875Y0055775
Y0056775
Y0057775
X0180875Y0058775
X0181875
Y0057775
Y0056775
Y0055775
Y0054775
Y0053775
X0179875
Y0052775
X0180875Y0050775
Y0049775
X0181875Y0049025
X0184875Y0049775
Y0050775
Y0051775
Y0052775
Y0053775
Y0054775
X0185875Y0054775
Y0053775
Y0052775
X0186875
Y0053775
Y0054775
X0187875
X0188875
X0189875Y0054775
X0190875Y0054775
X0190875Y0055775
X0190875Y0056775
Y0057775
X0189875Y0057775
Y0056775
Y0055775
X0188875Y0056775
Y0057775
X0188875Y0058775
X0189875Y0058775
X0190875
X0190875Y0059775
X0189875
Y0060775
X0190875
Y0061775
X0191875Y0060775
X0192875
Y0059775
Y0058775
Y0057775
Y0056775
X0191875
X0191875Y0057775
X0191875Y0058775
Y0059775
X0193875
Y0058775
X0193875Y0057775
X0193875Y0056775
X0194875Y0056775
X0195875
Y0054775
Y0053775
Y0052775
Y0051775
Y0050775
Y0049775
X0194875
X0193875Y0049775
Y0050775
X0194875
Y0051775
X0193875Y0051775
Y0052775
X0192875
Y0053775
X0191875
X0190875Y0053775
X0189875Y0053775
Y0052775
X0188875
Y0053775
X0187875Y0053775
Y0052775
Y0051775
X0186875Y0051775
X0185875
Y0050775
Y0049775
X0186875
X0187875Y0049775
Y0050775
X0186875Y0050775
X0188875
X0189875
X0190875
Y0049775
X0189875
X0188875
Y0051775
X0189875
X0190875
X0191875Y0051775
X0192875
Y0050775
X0191875Y0050775
Y0049775
X0191875Y0052775
X0191875Y0054775
X0191875Y0055775
X0192875Y0054775
X0193875Y0054775
X0194875Y0054775
Y0053775
Y0052775
X01973Y0051775
X0197275Y0057775
Y0058775
X0195875Y0059775
X0194875
Y0060775
X0195875
X01962Y00618
X0195875Y0063775
Y0064775
Y0065775
X0194875
Y0064775
Y0063775
X0193875Y0063775
X0192875Y0063775
Y0064775
X0193875Y0064775
X0193875Y0066775
Y0067775
X0194875Y0067775
X0195875
Y0066775
X0194875
X0192875
Y0067775
X0191875
Y0066775
Y0065775
Y0064775
Y0063775
X0190875Y0063775
X0189875
Y0064775
X0190875
Y0065775
X0189875
Y0066775
X0190875
Y0067775
X0189875
X0188875
Y0066775
Y0065775
Y0064775
Y0063775
X0187875Y0063775
Y0064775
Y0065775
X0186875Y0065775
X0185875
Y0066775
Y0067775
X0186875
Y0066775
X0187875Y0066775
X0186875Y0064775
Y0063775
X0185875
X0184875Y0063775
X0183875Y0063775
Y0064775
Y0065775
Y0066775
Y0067775
X0184875Y0067775
Y0066775
Y0065775
X0181875Y0065775
Y0066775
Y0067775
X0180875Y0067775
Y0066775
Y0065775
X0180875Y0064775
X0181875
X0180875Y0063775
X0179875Y0063775
X0178875
X0177875Y0063775
X017785Y0062875
X0177875Y0061775
Y0060775
X0176875Y0060775
Y0061775
X0176825Y0062675
X0176875Y0063775
Y0064775
X0175875
X0174875
Y0063775
X0173875Y0063775
X0173975Y0064675
X0173875Y0065775
X0172875
Y0064775
Y0063775
X0171875Y0063775
Y0064775
Y0065775
Y0066775
X0170875Y0066775
X0170875Y0067775
X0171875Y0067775
X0172875
Y0066775
X0173875
Y0067775
X0174875Y0067775
Y0066775
X0175875
X0176875
Y0065775
X0175875
X0174875
X0177875Y0066775
X0178875Y0066775
Y0067775
X0177875Y0067775
X0179875Y0067775
Y0066775
Y0065775
X0178875
Y0064775
X0179875Y0064775
X0177875Y0064775
X0178875Y0061775
X0179875
Y0060775
X0178875
X0180875Y0060775
Y0061775
X0181875Y0061775
Y0060775
Y0059775
X0180875Y0059775
X0183875Y0059775
Y0058775
Y0057775
Y0056775
Y0055775
X0184875Y0055775
Y0056775
Y0057775
Y0058775
Y0059775
Y0060775
Y0061775
X0185875Y0061775
Y0060775
X0186875
Y0061775
X0187875Y0061775
X0187875Y0060775
X0187875Y0059775
Y0058775
X0186875Y0058775
X0185875
Y0057775
Y0056775
X0186875
Y0057775
X0187875Y0057775
Y0056775
Y0055775
X0186875Y0055775
X0185875
Y0059775
X0186875
X0188875Y0059775
Y0060775
X0193875
X0192875Y0062775
X0183875Y0061775
Y0060775
Y0052775
Y0051775
X01858965Y00469485
X018625Y0046595
X01866035Y00462414
X01869571Y00458879
X0186925Y0044525
X0190275Y0042675
X0191475Y0043
X0191375Y0041525
X01913Y0040125
X0191325Y00384
X0184275Y0038275
X018405Y003615
X01848Y003615
Y00354
Y003465
X018405
Y00354
X01826261Y00332795
X01817761
X01809261
Y00320795
X01817761
X01826261
X01826011Y00301545
X01819261
X01812511
X01832761
X01842511Y00304545
X01842511Y00312545
X0185825Y0029075
X01815511Y00376795
X01805011Y00376795
X01794761Y00376795
X01799261Y0038219
X01824914Y003895
Y003945
Y003995
Y004045
X01787Y004075
X01765761Y00342545
X01765761Y00331795
X017595Y00492
X0174875Y0049775
Y0050775
X0175875
X0173875Y0051775
X0172875Y0051775
X0172875Y0052775
Y0053775
Y0054775
X0173875
Y0053775
Y0052775
X0171875Y0052775
Y0053775
Y0054775
Y0055775
Y0056775
Y0057775
Y0058775
Y0059775
Y0060775
Y0061775
X0170875Y0061775
Y0060775
X0169825Y0060025
X01689Y00598
Y0059275
X01691Y006175
X0169875Y0064775
Y0065775
Y0066775
X0170875Y0065775
Y0064775
Y0063775
X0172875Y0061775
Y0060775
X0173875
Y0061775
X0174875Y0061775
X0175875
Y0060775
X0174875
Y0059775
X0173875Y0059775
Y0058775
X0172875
Y0059775
X0172875Y0057775
X0172875Y0056775
Y0055775
X0173875
Y0057775
X0174875Y0054775
X0171875Y0051775
X0170875Y0056775
X0166125Y006265
X0165546Y006265
X0165796Y006415
X0166475Y006415
X0165796Y006615
X0159675Y0052925
X02003Y0054775
X0202025Y0056425
X0204025Y00548403
X020615Y0048825
X0207225Y0048825
X0208875Y0050125
Y0050675
X021065Y0045925
X02111895Y0045475
X021065Y00449
X021065Y004385
X0209525Y0043075
X02086Y0043375
X02083705Y00413511
X02076205
Y00406011
X02083705
X02091205
X02091205Y00413511
X0212625Y004175
X0216425Y0040975
X02161Y003895
X021615Y0037425
X021825Y003685
X021825Y00358
X021825Y0034775
X02177105Y0035225
X021535Y0034125
X021475Y0039275
X02197795Y00393489
X02205295
X02212795
Y00400989
X02205295
X02197795Y00400989
X022265Y0037925
Y0037075
Y0036225
X022385
Y0037075
Y0037925
X0225775Y00379
Y0038575
X0225475Y003955
X0224675Y003955
X0225775Y0037225
Y003655
X022275Y0031875
X0221675
X0228925Y00313
X02293Y00303
X0232Y004
Y005
X02318Y0059375
X02265Y00596
X02257Y00596
X02268Y0058625
Y005795
Y0057275
Y00566
X0224875Y0056275
Y0057125
Y0057975
X0223675
Y0057125
Y0056275
X0221325Y0057375
X02215545Y00593989
X02223045Y00593989
Y00601489
X02215545
X02208045
X02208045Y00593989
X02207Y0062275
X0220675Y006295
X0217925Y00617
X0217975Y005975
X0219275Y00569
X0219275Y005585
X0219275Y0054825
X0214309Y005527
X02144Y0056375
X02133Y005865
X021305Y0059225
X021205Y0059325
X021065Y00626
X0213Y0064175
X0215575Y0064475
X021915Y006805
X0221825Y0067275
X0222375Y006545
X02227Y0051925
X0223775Y0051925
X0214325Y0047975
X0213825
X0213325
Y0047475
X0213825
X0214325
Y0046975
X0213825
X0213325
X020625Y0044475
Y0043625
Y0042775
X020505
Y0043625
Y0044475
X0203125Y004415
Y0043475
X0203125Y00428
X0203125Y0042125
X0203425Y004115
X0204225Y004115
X0200975Y0042825
X0200975Y0043325
X0200975Y0043825
X0200475Y0043825
X0200475Y0044325
X0200975
X0200475Y0043325
X0200475Y0042825
X02028Y0032375
X0203875Y0032375
X02073Y0029475
X02078395Y0029025
X02083Y0064675
X02043Y0064625
Y0065125
X02038
Y0064625
Y0064125
X02043
X02033
Y0064625
Y0065125
X0203775Y006665
X0204275Y006665
X0205175Y006665
X020435Y0067825
X0203375Y0067725
X019985Y006415
X019875Y006525
X01985Y00578
X019975Y0069675
X02020898Y00697898
X02019Y00705
X020175Y00711
X0204525Y0070825
X0204675Y00696
X02049Y00719
X0206075Y00727
X0206125Y0074216
X0203925Y007415
X020335Y0074475
X0203141Y00756
X0203141Y00771
Y00776
X0203141Y00786
X0203166Y00796
X02026625Y00800625
X020215Y0080675
X020205Y0079375
X0201525Y00799
X020155Y0078725
X0205825Y00779
Y00768
X0206925
X0206925Y00779
X0209509Y00771
X0210483Y0076133
X0210975Y007565
X02105Y007515
X021065Y00744269
X02082Y0073275
X0208125Y0069125
X02182Y006935
X02179007Y0069875
X02179146Y0070975
X0220025Y00711
X021945Y0072075
Y0072625
Y0073175
X02218Y00729
X0221925Y00735
X0224125Y00735
Y007295
X0225625Y0076025
X0228675Y00763
X0227626Y0077526
X0229925Y0075075
X0230725Y0074425
X0221525Y0069575
X0217225Y00757
Y00763
X0217275Y007685
X02181Y007705
X02177525Y00773976
X0217475Y0079275
X021805Y00800068
X0218575Y008
X0219375Y0078525
X0220775Y0079575
X02192561Y0081925
X02192629Y008245
X02177507
X02177439Y0081925
X02165Y00831
X02135Y008375
X0212825Y00831
X0214075Y0084575
X0215225Y0085525
X0217575Y00884
X0218125Y0088825
X0218675Y00883902
X02185Y008755
X02207Y00864
X022215Y00899875
X022775Y009145
X022825
Y009195
X022875
Y009245
X022825
X022775
Y009195
X022875Y009145
X02285Y010515
X02305Y010715
X02265
X02247Y010815
X0224
X020465Y01044
X0202775Y010515
X02024119Y010375
X02019
X02022796Y00997204
Y00984203
X0202986Y0096989
X0202475Y0094675
X0202425Y0093325
X02036Y0092125
X0205375Y009255
X02051Y0091075
X0205775Y0090275
X02082Y00894
X0208725
X0209125Y0089775
Y0090425
X0208775Y00922
Y0092725
X0208175Y00928
X0208175Y00923
X020995Y008895
X0208925Y0087475
X02052Y0095175
X02047Y0095175
X02047Y0095675
X02052
X02056424Y00984203
Y00997204
X0198425Y00992
X01987Y0104975
X0199275Y0083
X0200025Y0083075
X019585Y008185
X0195475Y0080775
X01924Y008035
X0191875
X01917Y00786
X019165Y0077975
X019305Y0078569
X0192875Y0075775
Y0074775
X0191875
Y0075775
X0190875Y0075775
Y0074775
Y0073775
X0189875
Y0072775
Y0071775
X0190875
Y0072775
X0191875Y0072775
Y0071775
X0192875
Y0072775
Y0073775
X0191875
X0193875Y0073775
Y0072775
Y0071775
Y0070775
Y0069775
Y0068775
X0194875Y0068775
Y0069775
X0195875
Y0068775
Y0070775
Y0071775
X0196725Y00718
X01964Y00722
X0196725Y00726
X0195875Y0072775
Y0073775
X0194875
Y0072775
Y0071775
Y0070775
X0192875
X0191875
Y0069775
X0192875
Y0068775
X0191875
X0190875Y0068775
X0189875
Y0069775
X0190875
Y0070775
X0189875
X0188875
Y0071775
X0187875Y0071775
Y0072775
Y0073775
X0186875Y0073775
Y0074775
X0185875
Y0075775
X0186875
X0188875
Y0074775
X0189875Y00775461
X0187675Y00777
Y0078275
X018585Y0078025
Y0077385
X0184875Y0075775
X0184175Y007605
X0183825Y0075675
X0183875Y0074775
Y0073775
Y0072775
X0183875Y0071775
Y0070775
X0184875Y0070775
Y0071775
Y0072775
Y0073775
X0185875Y0073775
Y0072775
X0185875Y0071775
X0186875Y0071775
Y0070775
X0187875Y0070775
Y0069775
X0186875Y0069775
X0185875
Y0068775
X0186875
X0187875Y0068775
X0188875Y0068775
Y0069775
X0184875Y0069775
Y0068775
X0183875Y0068775
Y0069775
X0181875
Y0068775
X0180875Y0068775
X0179875Y0068775
X0178875
X0177875Y0068775
X0177875Y0069775
X0176875Y0069775
X0176875Y0068775
X0175875Y0068775
X0174875Y0068775
X0173875Y0068775
X0172875
Y0069775
X0173875Y0069775
X0173875Y0070775
X0172875
Y0071775
Y0072775
X0173875
Y0071775
X0174875Y0071775
Y0072775
X0175875
Y0073775
X0174875
X0173875Y0073775
X0172875
Y0074775
X0173875
Y0075775
X0172875
X0171875Y0075775
Y0074775
X0170875Y0074775
Y0075775
X0169875
Y0074775
Y0073775
X0170875
X0171875Y0073775
Y0072775
Y0071775
X0170875Y0071775
X0170875Y0070775
Y0069775
X0169875Y0069775
X0170875Y0068775
X0171875Y0068775
Y0069775
X0171875Y0070775
X0174875Y0070775
X0175875Y0069775
X0176875Y0070775
Y0071775
X0177875Y0071775
Y0072775
X0178875Y0072775
Y0071775
Y0070775
X0178875Y0069775
X0179875Y0069775
X0180875
X0180875Y0070775
Y0071775
Y0072775
Y0073775
X0179875Y0073775
X0178875
X0177875Y0073775
Y0074775
Y0075775
X0178875Y0075775
X0179875
Y0074775
X0178875
X0176875
Y0075775
X01769Y0076448
X0175875Y0075775
X0174875
Y0074775
X0175875
X0180875Y0074775
Y0075775
X0181875Y0075775
Y0074775
Y0073775
Y0072775
Y0071775
Y0070775
X0179875
Y0071775
Y0072775
X0184875Y0074775
X018485Y007905
X018425Y007905
X018305Y0080803
X01815Y008185
X01804
X01804Y008295
X01815Y008295
X01794Y0085325
X0177871Y0085225
Y0084725
X017725Y0083775
X017595Y0083304
X017545
X0175525Y008175
X017495Y0085096
X017445
X0174385Y0085675
Y008679
X01755
Y008816
X0174385
Y0089275
X0173015
Y008816
X01719
Y008679
X0173015
Y0085675
X017295Y0084846
X017245
X017195Y0083304
X017145
X017141Y0080415
X01705Y008095
X016905Y0080975
X0167125Y008105
X0167775Y007955
X0167075Y0078575
X01644375Y007815
Y007765
X01639Y0079075
X01625Y0079198
X016225Y0081025
X0161718Y008105
X0160759
X01628643Y00810107
X0164375Y0081075
X0164575Y0083325
X0164075Y0083275
X0165185Y00833
X01624Y0083275
X016831Y008345
X01693107Y0085725
X0169529Y0088225
Y0088725
X016805Y00884765
X0167975Y0091639
X0168025Y009225
X0164475Y00913
X0164175Y0098925
X01627Y0099775
X01634585Y01020008
X0165425Y0102825
X016635
X0167075
X016775
X01606119Y01021594
X016015Y0102525
X01591119Y01015395
Y01005395
X016105Y0097375
X0173125Y009735
X01771297Y00974203
Y00987204
X017695Y0101125
X017775Y0103225
X017825
X017875Y0103225
X018095Y010315
X01822
X0184525Y010465
X0186525Y010475
X0187125
X01878
X0191775Y0105175
X01928Y01048
X0192775Y01042
X0193425Y010445
X019415Y010375
X019475Y010295
X019515Y0102575
X0195625Y01021
X0196275Y0101175
X0197025Y0100675
X0197425Y0100075
X019495Y00959
X0191825Y0095175
X0191625Y0094502
X019205Y0094225
X0189925Y009525
X0189475Y0098525
X01896Y0099875
X0186Y009435
X0185375Y009445
X0186425Y0093875
X0186275Y00925375
X0185775
X0186475Y0091225
X0187825Y00882
X01866Y0086725
Y0086225
X0186Y00859
X018385Y008555
X0182875Y008816
X0182225Y0088225
X01784Y008815
X0177871Y0086725
X017625Y00887
X017575Y00902
X017515Y009235
X01735Y0092325
X0173
X017755Y0094
X01776Y0094575
X0179575Y0094175
X018005Y0094175
X01803Y0092975
X0179925Y00926125
X0179575Y0092175
X0179175Y0092475
X01807Y009225
X0181425Y0094675
X0182575Y0094675
X0183075
X0183575
X01804924Y00974203
X01804924Y00987204
X01922Y0089275
X01932Y00881
X019395Y0086575
X0192125
X01934Y0084775
X01939
X019585Y0086225
Y0086725
Y0087725
Y0088225
X0195375Y009065
X01965Y009095
X01897Y0083975
X018748Y008178
X0186675Y0081775
X0185675Y0081875
X018705Y008045
X0187625Y008045
X0188225
X0193875Y0075775
Y0074775
X0194875Y0074775
X0195875
Y0075775
X0194875
X01967Y0073975
X01983Y0074275
X0198125Y0075325
X0197925Y00768522
X0167725Y0074775
X0162559Y007385
X0162075
X0162475Y007115
X0162975
X0163139Y0070265
X01592Y0069725
X01587Y0071925
X0157525Y006965
X0157289Y00690425
X0156425Y00699
X0155925
X0155825Y0072525
X01553Y007275
Y007325
Y007475
Y007525
X01559Y00752
X015705Y007425
Y007375
Y007775
Y007825
X015585Y0079425
X01553Y007725
Y007675
X0153Y00772
X01519
Y00783
X01508
X01497
X01486
X01475
X01464
Y00772
Y00761
X01475
Y0075
Y00739
X01464
Y00728
Y00717
X01475
Y00728
X01486
X01497
Y00739
X01486
Y0075
X01497
Y00761
X01486Y00761
Y00772
X01497
X01508Y00772
Y00761
X01519
X01519Y0075
Y00739
X01508
Y00728
Y00717
X01519
X01519Y00728
X0153
Y00717
Y00739
Y0075
Y00761
Y00783
X015295Y00806
X015245
X015095
X015045
X014895
X014845
X01487Y0081275
X014945Y008235
X014995
X0150825Y00826
X015145Y008235
X015195
X015415Y008065
X015615Y0085175
X015295Y00874
X015245
X015095
X015045
X0149925Y00875
X014995Y008915
X014945
X015145
X015195
X01519Y009145
X01508
Y009255
X01497
X01486
X01475
X01464
Y009145
X01475
X01486
X01497Y009145
Y009365
X01486
Y009475
X01497
Y009585
X01486Y009585
X01475
X01464
Y009695
Y009805
X01475
Y009695
X01486
X01497
Y009805
X01486
X01508
X01519
Y009695
X0153
Y009585
Y009475
Y009365
X01519
Y009475
X01508
X01508Y009365
Y009585
Y009695
X01519Y009585
X01519Y009255
X0153
Y009145
X01553Y00915
Y0092
Y00935
Y0094
X015705Y00945
Y0095
Y0093
Y00925
Y00975
Y0098
X0156Y0098425
X01553Y0097
Y00965
X0154825Y0099775
X01535Y0100425
X015295Y010035
X015245
X015195Y01011
X015145
X01508Y01010279
X015095Y010035
X015045
X014995Y01011
X014945
X014895Y010035
X014845
X014795Y0100525
X014745Y010035
X014695
X014645Y0100675
X0144625Y0102075
X0144675Y01028
X01430415Y01031915
X01423997Y01031497
X01424415Y01037915
X01431Y0100625
X01441Y00975
Y0097
X01441Y00925
Y0092
X01464Y009365
X01464Y009475
X01475
Y009365
X014635Y0087975
X014305Y00883
X01423997Y00883503
X014245Y00877
X0139175Y0087475
X01388294Y00878206
X013685Y0089075
X0133375Y0089025
X0130075Y0088825
Y0088325
X0129325Y00885522
X01288362
X01288836Y00855
X01288836Y0085
X01318414Y0085
Y00855
X013265Y0084735
X01308Y0080675
X0130325Y00802
X01316Y0079575
X0131875Y0076
X0132375
X013415Y0076
X0135
Y007515
X013415Y007515
Y007685
X0135
X013585
Y0076
Y007515
X0135675Y00731
X0135525Y0070875
Y007035
X013365Y0070025
X0131075Y0069475
X013055Y00695
X0128925Y006935
X01308Y0071325
X0130325Y00718
X01289Y0074275
X0127325Y0074
X0127325Y0073525
X01258Y0073
X01241522Y00730772
X01234281Y0074778
X0123803Y00751529
X0124725Y00768
X01243031Y0077753
X01243031Y0078253
X01256Y007785
X012645Y00805
X01251Y00818
X01243031Y0081753
X01243031Y0081253
Y0083253
X01243031Y0083753
X0124153Y00857031
X01237781Y0086078
X01249Y008575
X0121828Y00862281
X0121328
X0119828
X0119328
X01195Y0086975
X0120328Y00842779
X0120828
X01197182Y00827
X0122253Y0082753
X0122253Y0082253
X0121853Y0080753
X0121853Y0080253
Y0079253
X0121853Y0078753
X0122103Y0077253
X0122103Y0076753
X0120828Y00767281
X0120328Y00767281
X0119828Y00742779
X0119328Y00742779
X0121328
X0121828Y00742779
X01228Y0069875
X01197Y0079975
X0128925Y0078225
X0135Y0078625
Y0079125
X01361Y0080925
X0137625Y0082975
X0139975Y008505
X014245Y008405
X01423997Y00833997
X014305Y008345
X0146475Y0081775
X014645Y0080925
X014695Y00806
X014745
X01475Y00772
X01464Y0075
X01508
X01497Y00717
X01486Y00717
X014895Y00694
X014945Y00694
X014995
X015145
X015195
X0146175Y0069075
X0143975Y0069025
X01423997Y00686003
X0143075Y007215
X01441Y007225
Y007275
X01441Y007725
Y007775
X0142125Y007715
X01401989Y0077299
X01407516Y00749516
X01407516Y00744516
X01407516Y00739516
X013775Y007675
X0137914Y0069386
X0140725Y0090125
X0135675Y009285
X013585Y00949
Y009575
Y00966
X0135
X013415
Y009575
Y00949
X0135Y00949
Y009575
Y0098375
Y0098875
X01361Y0100675
X0135Y0102425
X01352Y01029
X013505Y0106375
X0138Y0106225
X0140125Y010625
X013245Y0105775
X0131825Y0105575
X0131325Y0105844
X0131325Y01042
X01308Y0100425
X0130325Y009995
X01321Y00998
X0131875Y009575
X0132375
X01281Y0096025
X01279Y0096725
X01250531Y00965279
X01250531Y00960279
X01241031Y00941279
X01237281Y00937529
X012235Y0093925
X0121828Y00935529
X0121328Y00935529
X01208Y0093825
X01209Y0092925
X0119828Y00935529
X0119328Y00935529
X0120328Y0096003
X0120828Y0096003
X011975Y0096825
X0121853Y00970279
X0121853Y00975279
X0121853Y00980279
X0121853Y00985279
X012105Y00992
X0121853Y01005279
X0121853Y01010279
X0122175Y0102125
X01243031Y01020279
X01243031Y01025279
X01243031Y01030279
X0123975Y010365
X01252Y01028
X0124925Y0101
X01243031Y01015279
Y01000279
X01243031Y00995279
X0124603Y0105428
X01242281Y01058029
X01264982Y01057018
Y01050482
X01282Y010585
X0121828Y0105503
X0121328
X0120828Y01035779
X0120328
X0119828Y0106503
X0119328
X012955Y009095
X01308Y0091075
X0130325Y009155
X013775Y00965
X01394489Y0097049
X0140975Y0098575
X0148525Y0103525
X0151475Y0103725
X0151975
X01535Y0101125
X0153Y009805
X0118828Y0096003
X0118328Y0096003
X0116328Y0095753
X0115328
X01145531Y00965279
Y00975279
X01145531Y00995279
X0112603Y01000279
X0112603Y01023875
X01145531Y01020279
X01143031Y01030279
X0115328Y01030529
X0115828
X0116828Y01033029
X011755Y0103075
X0118328Y01030529
X0118828
X0117828Y0105253
X0117328Y01055674
X01165Y01054
X0115828Y01051529
X0115328
X01114Y01068
X01102Y0106575
X01097021Y01065729
X0105525Y0106575
X010525Y0104875
X010475Y0104875
X010425
X0103531Y01059501
X0103056Y01056793
Y01062251
X0099256
Y01056793
X0098781Y01059501
X00975699Y01065949
X00924842Y01049964
X00899414
X00873985Y01049964
X00848557Y01049964
X0081325Y0105325
X008105Y0104825
X0079775Y0101725
X008345Y0096825
X0084525Y00959
X00873985Y00953536
X0088725Y009535
X00899414Y00953536
X00924842
X009635Y0094875
X0094625Y00927457
Y00921999
X009417Y0092475
X009797
X0098425Y00927457
Y00921999
X010005Y00918
X01008Y00920375
Y00925375
X01013
Y00920375
X01040454Y00915951
X01053454
X010505Y0090125
X01045073
X01040454Y00949578
X01053454
X01071432Y0095475
X0107125Y0096125
X0106825Y00993
X010475Y01011792
X0105075Y01016042
Y010215
X010475Y0102575
X01009Y010135
X01033Y00985
Y0098
Y00973575
Y00968575
X0102614Y00942515
X0099275Y009725
X0100075Y008915
X0102175Y0085702
X01034854
X01022Y0084252
X01011Y00828751
Y00823293
X0100625Y00826001
X0098405Y00824249
Y00829707
X009795Y00827
X009506
X0094605Y00829707
Y00824249
X009125Y0082
X0090625
X0088675Y00822
X00878Y0081975
Y0082475
X00851Y0081275
X0086025Y007905
X0086425Y007645
X0084625
X00833595Y00767629
X00824075Y00766651
X00819325Y00766651
X0081325Y007745
X008135Y00788
X008185Y00784
X0082425Y007795
X00833595Y0078525
X0081975Y0080725
X0080625Y008025
X0079775Y0082025
X0079575Y0082725
X00802015Y0086975
X00794765Y00877
X00822Y00876
X00817Y00864765
X00812
X0084875Y008665
X0084825Y00879
X008535Y0087675
X0086175Y0086325
X0086375Y0085425
X00857Y0084825
X008675Y0089025
X00871Y0088675
X008655Y0090225
Y0090675
X0085
Y0090225
X00828Y0089875
X00817Y00901743
X008085Y00939
X0087375Y0094
X0088375Y009375
X009595Y0087625
X0096425Y0079775
X0099225Y007755
X0102175Y0079498
X010325Y0080952
X01046Y00826001
X0105075Y00823293
Y00828751
Y00786767
Y0078131
X01046Y00784017
X010485Y00765
X01059Y0075425
X01055Y0074175
X01044731Y0073747
X01041372Y00734112
X01038Y0072325
X0103275Y0071375
X010435Y0069925
X0105325Y0069525
X0108275Y0072525
X01093999Y00719751
X01098Y0071575
X0112725Y0072575
X0115828Y00745279
X0117328Y007475
X0117828Y00747779
X0118328Y00767281
X0118828Y00767281
X011795Y007755
X0116328Y00764781
X0115328
X01145531Y0077253
Y0078253
X01145531Y0080253
X0116525Y008
Y00827
X0116828Y00840279
X0115828Y00837779
X0115328
X01142531Y0083753
X01145531Y0082753
X0112603Y0083253
X0112603Y0080753
X0112603Y0077753
X0113725Y00848
X01156837Y0085925
X0117328Y0086175
X0117928Y00861531
X0118328Y00837779
X0118828
X0116725Y009165
X0116Y00913
X0113675Y0091225
X0113175
X0113425Y009165
X01115898Y00901022
X0109425Y0087625
X0112603Y00970279
X0115828Y00938029
X0117328Y00939
X0117828Y00940529
X01179Y00994
X011775Y0069025
X01171752Y00695893
X01166094
X010695Y0074525
X0102825Y0075275
X0095325Y0074325
X00950468Y00736533
X0094375Y0073375
X00937033Y00736533
Y00749967
X0094375Y0075275
X00947794Y00702927
X00899Y0069225
X0084125Y006965
X00833Y0069525
X0083275Y0071625
X00833351Y00725
X00824095Y00745051
X00819345Y00745051
X0084625Y007485
X00877
X0089725Y007645
X00883Y007825
X0079043Y00766301
X00784735Y00763706
X00779735
X00774735
X00769Y00766
X007725Y0075575
X0077975
X0078697Y00755721
X007835Y0073825
X0077525Y0073825
X00773669Y00725
X007735Y0071625
X00784
X00783169Y00725
Y0069525
X00773669
X0073025
X0072075
Y0071625
Y00725
X0073025
Y0071625
X007255Y0073825
X00711835Y00736051
X00707085Y00736051
X0072125Y0075725
X0073025Y0075475
X007315Y007665
X0071575Y00767
X00746Y007735
X00779735Y00776601
X0076968Y00802051
X0076068Y00806301
X00758975Y00819735
Y00824735
X00764Y0082825
X0076725Y00824
Y0081925
X00793Y0082025
X007925Y0084
X00785Y0084
Y008465
X007775Y008485
X00773Y0086875
Y008735
X00793Y008695
X0079025Y008995
X00770375Y0090325
X0077375Y0091475
X00778Y009345
X0078375Y00949
X007525Y0095325
X0074775Y0094975
X007575Y0097225
X00747Y009845
X00742
X00737
X0074825Y0101625
X00771Y01018
X0078325Y0100225
X00713Y0101775
X00686Y01005
X00673Y0101675
X0065175Y0101625
X0062475Y010165
X00623956Y0105125
X0061225Y0105125
X0059875Y0105075
Y0104375
X00604Y010385
X00604Y0103325
X0057725Y0102625
X00575Y00991
X0058125
X0056075Y009685
X0053925
X0053175Y00991
X005105Y0100925
X00539Y01029
X00541Y0105075
X00646965Y01051
X00701Y010535
X00681Y0096725
X0069425Y0095025
X0068775Y0092025
X00680979Y009205
X0067675Y00913
Y009085
X0066125
Y00913
X00655Y0089725
X0066125Y008735
Y0086875
X00665225Y00854985
Y00848485
X00672725Y00848485
X0068325Y00842
X006855Y0082
X0069025
X006776Y00801601
X0065675Y008015
X00637Y0080125
X006285Y00821
X0064775Y0082
X006525
X00654725Y00854985
X0067975Y00869
X0068974Y00869735
X0068249Y00876985
Y00886985
X00702225Y00884485
X00704725Y0090422
X00694725Y0090347
X0071225Y0091325
Y0091775
X00728Y009155
X00728449Y00886985
X00746Y008785
X00749975Y00871051
X007535Y00863
X007455Y0084625
X00738Y00814
X0079018Y00802301
X00754344Y00736051
X00749594Y00736051
X006715Y0073775
X0066325
X00661409Y00725
X0066125Y0071625
X0067175
X00670909Y00725
Y0069525
X00661409
X0062125Y0069375
X00618Y00716
X0061799Y00725
X0060849Y00735
X00602Y007485
X00569Y00745
X00547Y00729
X005385Y007155
Y0071075
X005095Y007045
X005085Y0072775
X0049Y00733625
X00485
X0048425Y00726
X0046275Y00726
X00463Y0071
X00412
X0041725Y00726
X0043316Y00734315
Y00739566
X0040325Y0075275
X004055Y0082425
X0040875Y0091225
Y0091725
Y0092225
X0041775Y00953536
X004365Y00899
Y00894
Y00889
X0048836Y00886445
X0048861Y00903945
X00496578Y00896695
X0049361Y00924445
X0050361
X005156Y00931025
X0055745Y0093702
X0057155Y0093702
X0057155Y0092752
X0057036Y00906195
X00577078Y00903413
X0057986Y00896695
X00577078Y00889977
X00563643
Y00903413
X0055011Y00896695
Y00883695
X00539985Y00886695
X0054511Y00867945
X0055511Y00868
X00555Y00835
X00561717Y00832217
X005645Y008255
X00555Y00816
X00548283Y00818783
X005455Y008255
X00508Y0083475
X0051161Y00861445
X0051481Y00865445
X0052211Y00864945
X00511593Y00870695
X0051486Y00875945
X0048036Y00861195
X00476695Y00781265
Y00774515
X00476695Y00767765
Y00761015
X00498195
Y00767765
Y00774515
Y00781265
X0050925Y007685
X005605Y0079025
X00604Y008345
X0062675Y0086875
Y0087325
X0062225Y0093575
X0061975Y0095025
Y0095525
X0062475
X006415Y0094825
X0064575Y0096575
X00643Y009895
X00699725Y0086475
X00704725
X00717Y00869
X006781Y00766601
X00672475Y00763706
X00667475
X00662475
X0066024Y0075575
X006675Y007545
X00674709Y00755721
X00667475Y00776601
X006345Y0076925
X00637334Y00736051
X00642084Y00736051
X0060849Y0071025
X005835Y0071
X0041775Y01049964
X0042Y01077
X00424625
X00392322Y01049964
X00366893
X003605Y01037
X00335833Y01036368
X00331Y0103
X00326Y010045
X0028275Y0100525
X002755
X00286Y0103625
X002504Y0103325
X003025Y01081
X0032175Y009645
X00348964Y00953536
X00366893Y00953536
X003865Y009535
X00392322Y00953536
X002915Y0092
X002775Y008275
X00307Y00816
X0033325Y0081625
X0030701Y00779612
X00300292Y00782394
X00293575Y00779612
X00293575Y00766177
X0030701
X00309792Y00772894
X00280042Y00758519
X00275042
X00285042Y00741767
X00271667Y00727015
X00276667Y00717015
X00291667Y00712015
X00286Y0068625
X00242218Y00689218
X002355Y00692
X00231542Y00699515
X00242042
X00236792Y00708515
X002065Y0071025
X00203717Y00703532
X00197Y0070075
Y0071975
X00190282Y00716967
X001875Y0071025
X0020875Y0068625
X002305Y0075275
X00257292Y0073139
X00269729Y00782894
X0035125Y00758
X00373Y0078775
X00377Y0072725
X0032175Y0072375
X00126Y007515
X001305Y00769
X00105Y00795
X0013Y00824
X0013025Y0084475
X0011025Y0086475
X0015025
X001705Y008605
X001585Y008145
X00213Y0084375
X0021075Y008805
X0013025Y0088475
X001485Y009175
X00177Y00987
X0013625Y01009
X00098Y0074325
X0004925Y0071125
X00369Y0109775
X0042875Y01098
X0045525Y0110175
X0050075Y0110275
X0057075
X0064075
X0071075Y0110275
X0078Y01107
X0091025Y011035
X0094Y010885
X00945
X0099025Y01099
X0101156Y0110875
X01032Y01098
X01865Y01106
X01977Y010955
X020085Y0109725
X0210625Y0109175
X0219
X02285Y010915
T02
X0051975Y004505
T03
X0022775Y0053025
X0027466Y00535565
X002355Y006825
X0055025Y0035175
X00913896Y0049287
X00944839Y0058213
X0107075Y00413
X0094375Y0074325
X00555Y008255
X0057036Y00896695
X00300292Y00772894
X00197Y0071025
T05
X0180505Y00151
X0183045
X0043725Y0016355
Y0018895
X022835Y003658
Y003912
X02305Y0091575
Y0094115
X02305Y0099528
Y0102068
X010852Y0109775
X010598
T06
X0025199Y0015366
X0029899
X0034899
X0039499Y0017691
Y0022491
Y0027291
X0034899Y0029616
X0029899
X0025199
X00856057Y00989036
X00881485
X00906914
X00932342
X00957771
X00983199
Y01014464
X00957771
X00932342
X00906914
X00881485
X00856057
X00468607Y01014464
X00443179
X0041775
Y00989036
X00443179
X00468607
X00392322
X00366893
X00341464
Y01014464
X00366893
X00392322
X002631Y0101615
X002377
X002123
X001869
Y0109235
X002123
X002377
X002631
T07
X0007399Y0015366
X0017399
X0022399Y0018541
Y0023941
X0027399Y0015366
X0037399
X0002399Y0021041
Y0029616
X0012399
X0022399
X0032399
T08
X016576Y0097935
X01683
X017084
Y0100475
X01683
X016576
X018291Y0100475
X018545
X018799
Y0097935
X018545
X018291
T09
X0002875Y003885
X0007975
X0005425Y00414
X0002875Y004395
X0007975Y004395
X0007975Y005885
X0002875
Y006395
X0005425Y00614
X0007975Y006395
Y007885
X0005425Y00814
X0002875Y008395
Y007885
X0007975Y008395
T10
X022765Y008221
Y008729
T11
X021375Y009305
Y009725
X021795Y009725
Y009305
X022215Y009305
Y009725
T12
X02285Y001675
X000725Y000935
X0013025Y003435
X004Y0037
X009
X01616Y003695
X02116
Y008695
X02285Y010715
X01616Y008695
X009Y0087
X004
X0013025Y0086475
X000725Y009475
T13
X02325Y0028875
X013825Y001235
X013705
X013585
X013465
X013345
X013225
X0131075
X0121325
X01201499
X01189499
X01177499
X01165499
X01153499
X01055999
X01044249
X01032249
X01020249
X01008249
X00996249
X00898748
X00886998
X00874998
X00862998
X00850998
X00838998
X-0000025Y0021375
Y002255
Y002375
Y002495
X0Y00601625
Y00613375
Y00625375
Y00637375
X0232475Y00637375
Y00625375
Y00613375
Y00601625
X02325Y003245
Y003125
Y003005
X02325Y009145
Y009265
Y009385
Y0095025
X-0000025Y0095025
Y009385
Y009265
Y009145
X00394754Y0111175
X00406504
X00418504
X00430504
X01146754
X01158504
X01170504
X01182504
X01898504
X01910254
X01922254
X01934254
T14
X012915Y01058
X013915
T15
X0208425Y00946
X0195525Y00946
Y01095
X0208425
T17
X0033299Y0017691
Y0027291
T18
X021375Y010455
X022215
M30
